<svg width="24" height="25" viewBox="0 0 24 25" fill="none" xmlns="http://www.w3.org/2000/svg">
<g clip-path="url(#clip0_901_25231)">
<path d="M12 24.3019C18.6274 24.3019 24 18.9293 24 12.3019C24 5.67446 18.6274 0.30188 12 0.30188C5.37258 0.30188 0 5.67446 0 12.3019C0 18.9293 5.37258 24.3019 12 24.3019Z" fill="#1977F3"/>
<path d="M16.6711 15.7714L17.2027 12.3018H13.8749V10.0507C13.8749 9.10229 14.3389 8.17584 15.8307 8.17584H17.3444V5.22266C17.3444 5.22266 15.9708 4.9881 14.6579 4.9881C11.9173 4.9881 10.1252 6.64862 10.1252 9.65748V12.3018H7.07751V15.7714H10.1252V24.1567C10.7361 24.2529 11.3621 24.3018 12 24.3018C12.6379 24.3018 13.264 24.2512 13.8749 24.1567V15.7714H16.6711Z" fill="white"/>
</g>
<defs>
<clipPath id="clip0_901_25231">
<rect width="24" height="24" fill="white" transform="translate(0 0.300171)"/>
</clipPath>
</defs>
</svg>
