<svg width="24" height="25" viewBox="0 0 24 25" fill="none" xmlns="http://www.w3.org/2000/svg">
<g clip-path="url(#clip0_901_25234)">
<path d="M12.0039 0.300171C6.99403 0.300171 5.52883 0.305339 5.24402 0.328965C4.2159 0.414426 3.57615 0.576304 2.87917 0.923315C2.34204 1.19003 1.91843 1.49921 1.50035 1.9326C0.738959 2.72298 0.277507 3.69535 0.110461 4.85119C0.0292458 5.41232 0.00561946 5.52676 0.000820359 8.39293C-0.00102545 9.34832 0.000820359 10.6057 0.000820359 12.2922C0.000820359 17.298 0.00635778 18.7617 0.0303533 19.046C0.113415 20.0464 0.270308 20.6758 0.602553 21.3643C1.23751 22.6822 2.45021 23.6716 3.87886 24.0408C4.37354 24.1681 4.9199 24.2383 5.6213 24.2715C5.91848 24.2844 8.94744 24.2936 11.9783 24.2936C15.0091 24.2936 18.0399 24.2899 18.3297 24.2752C19.1418 24.237 19.6134 24.1737 20.1349 24.0389C21.5728 23.6679 22.7633 22.6933 23.4112 21.357C23.737 20.6851 23.9022 20.0317 23.9769 19.0835C23.9932 18.8767 24 15.5807 24 12.2891C24 8.99687 23.9926 5.70691 23.9764 5.50018C23.9007 4.53667 23.7355 3.88879 23.3992 3.20399C23.1232 2.64342 22.8168 2.22479 22.372 1.79675C21.5781 1.03849 20.6072 0.577042 19.4503 0.410181C18.8897 0.32915 18.778 0.305155 15.9096 0.300171H12.0039Z" fill="url(#paint0_radial_901_25234)"/>
<path d="M12.0039 0.300171C6.99403 0.300171 5.52883 0.305339 5.24402 0.328965C4.2159 0.414426 3.57615 0.576304 2.87917 0.923315C2.34204 1.19003 1.91843 1.49921 1.50035 1.9326C0.738959 2.72298 0.277507 3.69535 0.110461 4.85119C0.0292458 5.41232 0.00561946 5.52676 0.000820359 8.39293C-0.00102545 9.34832 0.000820359 10.6057 0.000820359 12.2922C0.000820359 17.298 0.00635778 18.7617 0.0303533 19.046C0.113415 20.0464 0.270308 20.6758 0.602553 21.3643C1.23751 22.6822 2.45021 23.6716 3.87886 24.0408C4.37354 24.1681 4.9199 24.2383 5.6213 24.2715C5.91848 24.2844 8.94744 24.2936 11.9783 24.2936C15.0091 24.2936 18.0399 24.2899 18.3297 24.2752C19.1418 24.237 19.6134 24.1737 20.1349 24.0389C21.5728 23.6679 22.7633 22.6933 23.4112 21.357C23.737 20.6851 23.9022 20.0317 23.9769 19.0835C23.9932 18.8767 24 15.5807 24 12.2891C24 8.99687 23.9926 5.70691 23.9764 5.50018C23.9007 4.53667 23.7355 3.88879 23.3992 3.20399C23.1232 2.64342 22.8168 2.22479 22.372 1.79675C21.5781 1.03849 20.6072 0.577042 19.4503 0.410181C18.8897 0.32915 18.778 0.305155 15.9096 0.300171H12.0039Z" fill="url(#paint1_radial_901_25234)"/>
<path d="M11.9983 3.43805C9.59211 3.43805 9.29014 3.44857 8.34509 3.49158C7.40188 3.53477 6.75806 3.6841 6.19472 3.90319C5.612 4.12949 5.11769 4.4322 4.62523 4.92485C4.1324 5.41731 3.82969 5.91161 3.60265 6.49415C3.383 7.05768 3.23349 7.70168 3.19104 8.64452C3.14877 9.58957 3.1377 9.89173 3.1377 12.2979C3.1377 14.7041 3.1484 15.0052 3.19122 15.9502C3.2346 16.8934 3.38393 17.5372 3.60284 18.1006C3.82932 18.6833 4.13203 19.1776 4.62468 19.6701C5.11695 20.1629 5.61126 20.4664 6.19361 20.6927C6.75732 20.9117 7.40132 21.0611 8.34435 21.1043C9.2894 21.1473 9.59119 21.1578 11.9972 21.1578C14.4036 21.1578 14.7046 21.1473 15.6497 21.1043C16.5929 21.0611 17.2374 20.9117 17.8012 20.6927C18.3837 20.4664 18.8773 20.1629 19.3695 19.6701C19.8624 19.1776 20.1651 18.6833 20.3921 18.1008C20.6099 17.5372 20.7594 16.8932 20.8037 15.9504C20.8462 15.0054 20.8573 14.7041 20.8573 12.2979C20.8573 9.89173 20.8462 9.58975 20.8037 8.6447C20.7594 7.70149 20.6099 7.05768 20.3921 6.49434C20.1651 5.91161 19.8624 5.41731 19.3695 4.92485C18.8767 4.43202 18.3839 4.1293 17.8006 3.90319C17.2358 3.6841 16.5916 3.53477 15.6484 3.49158C14.7033 3.44857 14.4025 3.43805 11.9955 3.43805H11.9983ZM11.2035 5.03467C11.4394 5.0343 11.7026 5.03467 11.9983 5.03467C14.3639 5.03467 14.6443 5.04316 15.5784 5.08562C16.4423 5.12512 16.9111 5.26946 17.2234 5.39073C17.6369 5.55131 17.9317 5.74328 18.2416 6.05337C18.5517 6.36347 18.7436 6.6588 18.9046 7.07226C19.0258 7.3842 19.1704 7.85303 19.2097 8.71687C19.2521 9.65085 19.2614 9.93141 19.2614 12.2959C19.2614 14.6604 19.2521 14.9409 19.2097 15.8749C19.1702 16.7387 19.0258 17.2076 18.9046 17.5195C18.744 17.933 18.5517 18.2274 18.2416 18.5373C17.9315 18.8474 17.6371 19.0394 17.2234 19.1999C16.9115 19.3218 16.4423 19.4657 15.5784 19.5052C14.6445 19.5477 14.3639 19.5569 11.9983 19.5569C9.63253 19.5569 9.35216 19.5477 8.41818 19.5052C7.55434 19.4654 7.08551 19.321 6.77301 19.1998C6.35955 19.0392 6.06422 18.8472 5.75413 18.5371C5.44403 18.227 5.25207 17.9324 5.09111 17.5188C4.96984 17.2068 4.82532 16.738 4.786 15.8742C4.74355 14.9402 4.73506 14.6596 4.73506 12.2937C4.73506 9.92772 4.74355 9.64864 4.786 8.71466C4.8255 7.85082 4.96984 7.38198 5.09111 7.06967C5.2517 6.65621 5.44403 6.36088 5.75413 6.05079C6.06422 5.74069 6.35955 5.54873 6.77301 5.38777C7.08532 5.26595 7.55434 5.12198 8.41818 5.08229C9.2355 5.04538 9.55224 5.0343 11.2035 5.03246V5.03467ZM16.7276 6.50578C16.1407 6.50578 15.6644 6.98144 15.6644 7.5686C15.6644 8.15556 16.1407 8.63178 16.7276 8.63178C17.3146 8.63178 17.7908 8.15556 17.7908 7.5686C17.7908 6.98163 17.3146 6.50541 16.7276 6.50541V6.50578ZM11.9983 7.74801C9.48561 7.74801 7.44839 9.78522 7.44839 12.2979C7.44839 14.8106 9.48561 16.8469 11.9983 16.8469C14.511 16.8469 16.5475 14.8106 16.5475 12.2979C16.5475 9.78522 14.5108 7.74801 11.9981 7.74801H11.9983ZM11.9983 9.34463C13.6293 9.34463 14.9516 10.6668 14.9516 12.2979C14.9516 13.9289 13.6293 15.2512 11.9983 15.2512C10.3672 15.2512 9.04501 13.9289 9.04501 12.2979C9.04501 10.6668 10.3672 9.34463 11.9983 9.34463Z" fill="white"/>
</g>
<defs>
<radialGradient id="paint0_radial_901_25234" cx="0" cy="0" r="1" gradientUnits="userSpaceOnUse" gradientTransform="translate(6.37503 26.1416) rotate(-90) scale(23.7793 22.1226)">
<stop stop-color="#FFDD55"/>
<stop offset="0.1" stop-color="#FFDD55"/>
<stop offset="0.5" stop-color="#FF543E"/>
<stop offset="1" stop-color="#C837AB"/>
</radialGradient>
<radialGradient id="paint1_radial_901_25234" cx="0" cy="0" r="1" gradientUnits="userSpaceOnUse" gradientTransform="translate(-4.02013 2.02862) rotate(78.6776) scale(10.6296 43.8265)">
<stop stop-color="#3771C8"/>
<stop offset="0.128" stop-color="#3771C8"/>
<stop offset="1" stop-color="#6600FF" stop-opacity="0"/>
</radialGradient>
<clipPath id="clip0_901_25234">
<rect width="24" height="24" fill="white" transform="translate(0 0.300171)"/>
</clipPath>
</defs>
</svg>
