<svg width="24" height="25" viewBox="0 0 24 25" fill="none" xmlns="http://www.w3.org/2000/svg">
<g clip-path="url(#clip0_901_25239)">
<path d="M17.195 8.96364C18.7447 10.0708 20.6431 10.7222 22.6934 10.7222V6.77878C22.3054 6.77886 21.9184 6.73842 21.5387 6.65803V9.7621C19.4885 9.7621 17.5904 9.11066 16.0403 8.00357V16.051C16.0403 20.0768 12.7752 23.3401 8.7476 23.3401C7.24482 23.3401 5.84804 22.886 4.68774 22.1072C6.01204 23.4606 7.85886 24.3001 9.90205 24.3001C13.9299 24.3001 17.1952 21.0369 17.1952 17.0109V8.96364H17.195ZM18.6195 4.98516C17.8275 4.1204 17.3076 3.00285 17.195 1.76735V1.26013H16.1008C16.3762 2.83045 17.3157 4.17204 18.6195 4.98516ZM7.23518 19.018C6.79271 18.4381 6.5536 17.7288 6.55467 16.9994C6.55467 15.1582 8.04814 13.6653 9.89068 13.6653C10.2341 13.6652 10.5754 13.7178 10.9026 13.8215V9.78994C10.5202 9.73756 10.1342 9.71532 9.74843 9.72347V12.8615C9.42094 12.7577 9.07945 12.705 8.73598 12.7053C6.89344 12.7053 5.40005 14.198 5.40005 16.0395C5.40005 17.3416 6.14654 18.4688 7.23518 19.018Z" fill="#FF004F"/>
<path d="M16.0403 8.00349C17.5903 9.11058 19.4885 9.76202 21.5386 9.76202V6.65795C20.3942 6.41431 19.3811 5.81657 18.6194 4.98516C17.3155 4.17196 16.3761 2.83037 16.1007 1.26013H13.2264V17.0108C13.2199 18.847 11.729 20.3338 9.89043 20.3338C8.80698 20.3338 7.84444 19.8176 7.23484 19.018C6.14629 18.4688 5.3998 17.3415 5.3998 16.0396C5.3998 14.1983 6.89319 12.7054 8.73573 12.7054C9.08875 12.7054 9.42901 12.7603 9.74818 12.8616V9.72355C5.79137 9.80526 2.60913 13.0367 2.60913 17.0109C2.60913 18.9947 3.40158 20.7932 4.68774 22.1073C5.84804 22.886 7.24481 23.3402 8.74759 23.3402C12.7752 23.3402 16.0403 20.0767 16.0403 16.051V8.00349H16.0403Z" fill="black"/>
<path d="M21.5387 6.65797V5.81866C20.5067 5.82022 19.495 5.53136 18.6194 4.9851C19.3945 5.83323 20.4151 6.41804 21.5387 6.65797ZM16.1007 1.26015C16.0744 1.11008 16.0543 0.959022 16.0403 0.807385V0.300171H12.0717V16.051C12.0653 17.8869 10.5745 19.3737 8.73574 19.3737C8.19591 19.3737 7.68623 19.2457 7.23486 19.0181C7.84445 19.8176 8.80699 20.3337 9.89044 20.3337C11.7289 20.3337 13.22 18.8471 13.2265 17.0109V1.26015H16.1007ZM9.74836 9.72358V8.83006C9.41675 8.78476 9.08242 8.76203 8.74769 8.76219C4.71971 8.76211 1.45453 12.0256 1.45453 16.051C1.45453 18.5747 2.7378 20.7988 4.68783 22.1072C3.40168 20.7932 2.60923 18.9946 2.60923 17.0108C2.60923 13.0367 5.79138 9.80528 9.74836 9.72358Z" fill="#00F2EA"/>
</g>
<defs>
<clipPath id="clip0_901_25239">
<rect width="24" height="24" fill="white" transform="translate(0 0.300171)"/>
</clipPath>
</defs>
</svg>
