<svg width="24" height="25" viewBox="0 0 24 25" fill="none" xmlns="http://www.w3.org/2000/svg">
<path d="M21.543 7.33685C21.5576 7.54843 21.5576 7.76001 21.5576 7.97354C21.5576 14.4798 16.6045 21.9835 7.54759 21.9835V21.9796C4.87215 21.9835 2.25229 21.2172 0 19.7722C0.389031 19.819 0.780012 19.8424 1.17197 19.8434C3.38915 19.8453 5.54296 19.1014 7.28726 17.7315C5.18026 17.6915 3.3326 16.3177 2.68714 14.3121C3.42523 14.4545 4.18574 14.4252 4.91018 14.2273C2.61304 13.7632 0.96039 11.7449 0.96039 9.40096V9.33856C1.64485 9.71979 2.41121 9.93137 3.19512 9.95477C1.03157 8.50882 0.364656 5.63057 1.67118 3.38024C4.17111 6.45641 7.8596 8.32649 11.8191 8.52442C11.4223 6.81424 11.9644 5.02217 13.2436 3.81997C15.2268 1.95574 18.3459 2.05129 20.2101 4.0335C21.3129 3.81607 22.3698 3.41144 23.337 2.83813C22.9694 3.97792 22.2001 4.94611 21.1725 5.56135C22.1484 5.4463 23.102 5.18499 24 4.78621C23.3389 5.77683 22.5063 6.63972 21.543 7.33685Z" fill="#1D9BF0"/>
</svg>
